<svg class="max-w-full text-black dark:text-white" width="355px" fill="none" xmlns="http://www.w3.org/2000/svg" viewbox="0 0 710 260"><path d="M0 124l85-34v145L0 124z" fill="#FF7A00"/><path d="M170 136l-85 34V25l85 111z" fill="#FFB35A"/><path d="M208 181h23v-28h8l15 28h25l-18-32c9-4 15-12 15-24 0-17-13-28-32-28h-36v84zm23-46v-20h8c8 0 13 3 13 10 0 8-5 10-13 10h-8zM315 182c17 0 29-9 31-22h-21c-1 4-5 6-10 6-7 0-10-5-10-11v-1h41v-5c0-20-13-32-32-32s-32 13-32 32c0 21 12 33 33 33zm-10-40c0-5 4-9 10-9 5 0 10 4 10 9h-20zM355 204h23v-34c3 7 9 11 18 11 13 0 25-10 25-32s-13-32-25-32c-10 0-15 5-18 12v-11h-23v86zm22-55c0-9 4-15 10-15 7 0 10 6 10 15s-3 15-10 15c-6 0-10-6-10-15zM430 181h23v-33c0-7 5-12 11-12l9 1v-19l-6-1c-7 0-12 4-14 13h-1v-12h-22v63zM507 182c21 0 33-13 33-33 0-19-12-32-33-32-20 0-33 13-33 32 0 20 13 33 33 33zm0-17c-6 0-9-6-9-16s3-16 9-16 10 6 10 16-4 16-10 16zM567 118h-23l17 31-18 32h23l10-20 11 20h22l-18-32 17-31h-22l-10 19-9-19zM630 204c16 0 23-8 27-18l23-68h-24l-10 43h-1l-10-43h-24l22 65v1c-2 4-6 4-12 2l-5 16 14 2z" fill="currentColor" class="logo-text"/></svg>
