<svg width="710" height="260" fill="none" xmlns="http://www.w3.org/2000/svg"><rect width="710" height="260" rx="16" fill="#fff"/><path d="M58 125l74-31v127l-74-96z" fill="#FF7A00"/><path d="M207 135l-75 30V38l75 97z" fill="#FFB35A"/><path d="M240 167h20v-24h7l13 24h21l-15-27c8-4 13-11 13-21 0-16-11-25-28-25h-31v73zm20-40v-17h7c7 0 11 2 11 9 0 6-4 8-11 8h-7zM333 168c15 0 25-7 27-19h-18c-1 3-5 5-9 5-6 0-9-4-9-9v-1h36v-5c0-17-11-28-27-28-18 0-29 12-29 29s11 28 29 28zm-9-35c0-5 4-8 9-8s9 4 9 8h-18zM368 187h20v-29c3 5 8 10 16 10 11 0 21-10 21-29s-10-28-21-28c-8 0-14 5-16 11v-10h-20v75zm20-48c0-8 3-12 8-12 6 0 9 4 9 12 0 9-3 13-9 13-5 0-8-5-8-13zM434 167h20v-29c0-6 4-10 10-10l7 1v-17l-5-1c-6 0-10 4-12 12h-1v-11h-19v55zM501 168c18 0 29-12 29-28 0-17-11-29-29-29s-29 12-29 29c0 16 11 28 29 28zm0-15c-5 0-8-5-8-14 0-8 3-13 8-13s8 5 8 13c0 9-3 14-8 14zM553 112h-20l15 27-16 28h20l9-18 9 18h20l-16-28 15-27h-19l-9 17-8-17zM608 187c14 0 21-7 24-16l20-59h-21l-9 38h-1l-8-38h-21l19 57v1c-1 3-5 3-10 1l-5 14c4 2 8 2 12 2z" fill="#000"/></svg>
